<?xml version="1.0" encoding="utf-8"?>
<!-- Generator: Adobe Illustrator 19.0.0, SVG Export Plug-In . SVG Version: 6.00 Build 0)  -->
<svg version="1.1" id="Layer_1" xmlns="http://www.w3.org/2000/svg" xmlns:xlink="http://www.w3.org/1999/xlink" x="0px" y="0px"
	 viewBox="0 0 409.2 265.8" style="enable-background:new 0 0 409.2 265.8;" xml:space="preserve">
<style type="text/css">
	.st0{fill:#7289D9;}
	.st1{fill:#CCD9ED;}
	.st2{fill:#A3ACB2;}
	.st3{fill:none;stroke:#231F20;stroke-miterlimit:10;}
</style>
<g>
	<polygon class="st0" points="250.4,24.3 273.9,0 119.2,0 119.2,73.2 216.8,73.2 216.8,97.1 192.1,97.1 217.3,120.8 241,120.8 
		241,48.8 143.3,48.8 143.3,24.3 	"/>
	<polygon class="st1" points="289,15.9 265.8,39.1 265.8,146.4 243.2,146.4 266.5,169.6 289.9,169.6 289.9,15.9 	"/>
	<polygon class="st2" points="241.1,171.4 216.7,146.9 143.2,146.9 143.2,121.9 190,121.9 165,96.9 119.2,96.9 119.2,171.4 	"/>
</g>
<g>
	<g>
		<path class="st0" d="M0.1,238.6V233h9.1v6.4c0,3.5,0.3,6,0.9,7.4c0.6,1.4,1.7,2.1,3.4,2.1c1.7,0,2.8-0.6,3.3-1.8
			c0.5-1.2,0.8-3.1,0.8-5.8c0-2.7-0.5-5-1.4-7c-1-2-2.5-4-4.6-6.2l-4.7-4.8c-2.2-2.3-3.9-4.6-5.1-7.1c-1.2-2.4-1.8-5.3-1.8-8.5
			c0-5.2,1-9.1,3-11.6c2-2.5,5.5-3.8,10.4-3.8c4.9,0,8.2,1.5,10,4.4c1.7,3,2.6,7.3,2.6,13v3.9h-8.9v-4.5c0-3.1-0.3-5.3-0.8-6.6
			c-0.5-1.3-1.5-2-3-2c-1.5,0-2.6,0.5-3.2,1.5c-0.7,1-1,2.5-1,4.5s0.3,3.6,1,4.8c0.7,1.2,1.9,2.7,3.6,4.6l5.2,5.6
			c2.6,2.8,4.6,5.7,5.9,8.6c1.3,2.9,2,6.1,2,9.5c0,5.9-1,10.3-3,13.1c-2,2.8-5.5,4.2-10.4,4.2S5,255.5,3,252.4
			C1,249.2,0.1,244.7,0.1,238.6z"/>
		<path class="st0" d="M69.3,256.4V215c0-3.6-1.2-5.4-3.6-5.4c-1.5,0-2.6,0.5-3.4,1.5c-0.8,1-1.2,2.5-1.2,4.4v40.9h-9.5v-41.5
			c0-3.5-1.2-5.3-3.5-5.3c-1.6,0-2.7,0.6-3.5,1.8c-0.8,1.2-1.2,2.7-1.2,4.6v40.4h-9.5v-53.9h9.5v5.9c0.6-2,1.5-3.6,3-4.8
			c1.4-1.2,3.3-1.7,5.6-1.7c4,0,6.6,1.8,8,5.4c1.9-3.6,5-5.4,9.2-5.4c3.4,0,5.8,1.1,7.4,3.4c1.5,2.3,2.3,5.5,2.3,9.9v41.3H69.3z"/>
		<path class="st0" d="M97,256.9c-3.5,0-6-1.3-7.5-3.8c-1.5-2.5-2.3-6.2-2.3-10.9v-3.5c0-4.6,1.2-8.1,3.7-10.5
			c1.6-1.6,4.3-3.1,8.2-4.5c0.7-0.3,1.7-0.6,2.9-1.1c1.2-0.5,2.1-0.8,2.6-1V217c0-2.9-0.2-4.9-0.6-5.9c-0.4-1-1.4-1.6-2.9-1.6
			c-1.5,0-2.5,0.6-3,1.7c-0.5,1.1-0.8,3-0.8,5.6v2.4h-9.4v-1.6c0-5.1,1-9,2.9-11.7c1.9-2.7,5.3-4,10.1-4c4.9,0,8.3,1.3,10.4,4
			c2,2.7,3.1,6.7,3.1,12.1v38.5h-9.6v-5.4c-0.5,1.7-1.4,3-2.8,4.2C100.5,256.4,98.9,256.9,97,256.9z M104.5,227.1
			c-3,1.3-5.1,2.6-6.1,3.8c-1.1,1.2-1.6,3.1-1.6,5.6v5.8c0,2.5,0.3,4.3,0.8,5.4c0.5,1.1,1.4,1.6,2.6,1.6s2.2-0.4,2.9-1.2
			c0.8-0.8,1.2-1.7,1.4-2.7V227.1z"/>
		<path class="st0" d="M121.4,215.1c0-8.8,4.2-13.2,12.7-13.2c4.2,0,7.3,1.2,9.3,3.6c2,2.4,2.9,6.4,2.9,12v2.9h-8.5v-3.6
			c0-2.4-0.3-4.3-0.8-5.4c-0.6-1.2-1.5-1.8-2.8-1.8c-1.3,0-2.2,0.4-2.8,1.1s-0.9,2-0.9,3.8c0,2.9,1.3,5.5,3.8,7.9l5.1,4.6
			c5.2,4.9,7.9,10.3,7.9,16.1c0,4.6-1,8.1-3.1,10.4s-5.3,3.5-9.7,3.5c-4.4,0-7.6-1.3-9.7-3.8c-2.1-2.5-3.1-6.5-3.1-12.1v-3.5h9v4.4
			c0,4.8,1.2,7.2,3.7,7.2c1.3,0,2.2-0.4,2.8-1.3c0.6-0.8,0.9-2.3,0.9-4.3c0-3.6-1.7-6.9-5-10c-0.1-0.1-0.9-0.8-2.3-2.1
			c-1.5-1.3-2.3-2.1-2.5-2.3C123.6,225.3,121.4,220.5,121.4,215.1z"/>
		<path class="st0" d="M154.4,256.4v-63.8h9.5v16.1c0.5-1.9,1.5-3.6,3-4.9c1.5-1.3,3.3-2,5.4-2c3.1,0,5.5,1,7.1,3.1
			c1.6,2.1,2.4,5.1,2.4,9v42.5h-9.5v-41.6c0-3.5-1.3-5.2-3.8-5.2c-1.5,0-2.6,0.6-3.4,1.8c-0.8,1.2-1.2,2.8-1.2,4.9v40.1H154.4z"/>
	</g>
	<g>
		<path class="st1" d="M214.4,252.7c-2.2,2.9-5.6,4.4-10.3,4.4c-4.7,0-8.2-1.6-10.5-4.7c-2.3-3.1-3.5-7.6-3.5-13.5v-27.6
			c0-9.4,2.5-15.3,7.4-17.7c1.8-0.9,4-1.3,6.6-1.3c8.9,0,13.3,5.6,13.3,16.8v8.7h-9.3v-8.1c0-3.3-0.3-5.6-0.8-7
			c-0.6-1.4-1.6-2.1-3.2-2.1c-1.6,0-2.7,0.7-3.3,2.2c-0.6,1.5-0.9,3.8-0.9,6.8v29.5c0,3.4,0.3,5.8,0.9,7.3c0.6,1.5,1.7,2.2,3.3,2.2
			c1.6,0,2.7-0.7,3.3-2.2c0.6-1.5,0.9-3.9,0.9-7.4v-9.1h9.5v9C217.6,245.3,216.5,249.8,214.4,252.7z"/>
		<path class="st1" d="M238.2,257.1c-5.1,0-8.6-1.5-10.6-4.6c-2-3-2.9-7.4-2.9-13.2v-20.2c0-11.5,4.5-17.3,13.5-17.3
			c9,0,13.5,5.8,13.5,17.3v20.2c0,9-2.3,14.5-6.9,16.6C242.9,256.7,240.8,257.1,238.2,257.1z M238.2,249.4c1.5,0,2.5-0.7,3-2
			c0.5-1.3,0.8-3.3,0.8-5.8v-24.1c0-2.6-0.3-4.6-0.8-5.9c-0.6-1.3-1.6-2-3.1-2c-1.5,0-2.5,0.7-3.1,2c-0.6,1.3-0.8,3.3-0.8,5.9v24.1
			c0,4,0.6,6.4,1.9,7.3C236.7,249.2,237.4,249.4,238.2,249.4z"/>
		<path class="st1" d="M295.8,256.4V215c0-3.6-1.2-5.4-3.6-5.4c-1.5,0-2.6,0.5-3.4,1.5c-0.8,1-1.2,2.5-1.2,4.4v40.9h-9.5v-41.5
			c0-3.5-1.2-5.3-3.5-5.3c-1.6,0-2.7,0.6-3.5,1.8c-0.8,1.2-1.2,2.7-1.2,4.6v40.4h-9.5v-53.9h9.5v5.9c0.6-2,1.5-3.6,3-4.8
			c1.4-1.2,3.3-1.7,5.6-1.7c4,0,6.6,1.8,8,5.4c1.9-3.6,5-5.4,9.2-5.4c3.4,0,5.8,1.1,7.4,3.4c1.5,2.3,2.3,5.5,2.3,9.9v41.3H295.8z"/>
		<path class="st1" d="M324,251.4v5h-9.5v-63.8h9.5v13.8c0.5-1.3,1.5-2.4,2.8-3.3c1.3-0.8,2.7-1.3,4.3-1.3c4.6,0,7.6,2.1,9.1,6.2
			c0.9,2.6,1.4,6,1.4,10v22.8c0,0,0,0.1,0,0.1c0,7.8-1.7,12.7-5.2,14.8c-1.3,0.8-2.8,1.2-4.5,1.2c0,0-0.1,0-0.2,0
			C327.9,256.9,325.4,255,324,251.4z M324.8,247.1c0.6,1.5,1.7,2.2,3.3,2.2c1.6,0,2.7-0.7,3.1-2.1c0.5-1.4,0.7-3.9,0.7-7.3v-22.1
			c0-4.3-0.6-6.9-1.7-7.7c-0.5-0.4-1.2-0.6-1.9-0.6c-1.6,0-2.7,0.6-3.3,1.8c-0.7,1.2-1,3.4-1,6.5V240
			C324,243.3,324.2,245.6,324.8,247.1z"/>
		<path class="st1" d="M363,257.1c-5.1,0-8.6-1.5-10.6-4.6c-2-3-2.9-7.4-2.9-13.2v-20.2c0-11.5,4.5-17.3,13.5-17.3
			s13.5,5.8,13.5,17.3v20.2c0,9-2.3,14.5-6.9,16.6C367.7,256.7,365.5,257.1,363,257.1z M363,249.4c1.5,0,2.5-0.7,3-2
			c0.5-1.3,0.8-3.3,0.8-5.8v-24.1c0-2.6-0.3-4.6-0.8-5.9c-0.6-1.3-1.6-2-3.1-2c-1.5,0-2.5,0.7-3.1,2c-0.6,1.3-0.8,3.3-0.8,5.9v24.1
			c0,4,0.6,6.4,1.9,7.3C361.5,249.2,362.2,249.4,363,249.4z"/>
		<path class="st1" d="M383.3,215.1c0-8.8,4.2-13.2,12.7-13.2c4.2,0,7.3,1.2,9.3,3.6c2,2.4,2.9,6.4,2.9,12v2.9h-8.5v-3.6
			c0-2.4-0.3-4.3-0.8-5.4c-0.6-1.2-1.5-1.8-2.8-1.8c-1.3,0-2.2,0.4-2.8,1.1c-0.6,0.7-0.9,2-0.9,3.8c0,2.9,1.3,5.5,3.8,7.9l5.1,4.6
			c5.2,4.9,7.9,10.3,7.9,16.1c0,4.6-1,8.1-3.1,10.4c-2.1,2.3-5.3,3.5-9.7,3.5c-4.4,0-7.6-1.3-9.7-3.8c-2.1-2.5-3.1-6.5-3.1-12.1
			v-3.5h9v4.4c0,4.8,1.2,7.2,3.7,7.2c1.3,0,2.2-0.4,2.8-1.3c0.6-0.8,0.9-2.3,0.9-4.3c0-3.6-1.7-6.9-5-10c-0.1-0.1-0.9-0.8-2.3-2.1
			c-1.5-1.3-2.3-2.1-2.5-2.3C385.5,225.3,383.3,220.5,383.3,215.1z"/>
	</g>
</g>
<line class="st3" x1="4.2" y1="185" x2="409.2" y2="185"/>
<line class="st3" x1="4.2" y1="265.3" x2="409.2" y2="265.3"/>
</svg>
