<?xml version="1.0" encoding="utf-8"?>
<!-- Generator: Adobe Illustrator 19.0.0, SVG Export Plug-In . SVG Version: 6.00 Build 0)  -->
<svg version="1.1" id="Layer_1" xmlns="http://www.w3.org/2000/svg" xmlns:xlink="http://www.w3.org/1999/xlink" x="0px" y="0px"
	 viewBox="0 0 537.1 151.4" style="enable-background:new 0 0 537.1 151.4;" xml:space="preserve">
<style type="text/css">
	.st0{fill:#7289D9;}
	.st1{fill:#CCD9ED;}
	.st2{fill:#AAAAAA;}
	.st3{fill:#D7D7D7;}
	.st4{fill:none;stroke:#231F20;stroke-miterlimit:10;}
</style>
<g>
	<polygon class="st0" points="115.9,21.4 136.7,0 0,0 0,64.7 86.2,64.7 86.2,85.8 64.4,85.8 86.6,106.7 107.6,106.7 107.6,43.1 
		21.2,43.1 21.2,21.4 	"/>
	<polygon class="st1" points="150,14.1 129.5,34.5 129.5,129.3 109.6,129.3 130.1,149.9 150.8,149.9 150.8,14.1 	"/>
	<polygon class="st2" points="107.7,151.4 86.1,129.8 21.2,129.8 21.2,107.7 62.5,107.7 40.5,85.6 0,85.6 0,151.4 	"/>
</g>
<g>
	<g>
		<path class="st0" d="M175.6,88v-5h8.1v5.6c0,3.1,0.3,5.3,0.8,6.6c0.5,1.3,1.5,1.9,3,1.9c1.5,0,2.4-0.5,2.9-1.6
			c0.5-1,0.7-2.7,0.7-5.1c0-2.4-0.4-4.4-1.3-6.1c-0.8-1.7-2.2-3.6-4-5.5l-4.1-4.3c-1.9-2-3.4-4.1-4.5-6.3c-1.1-2.2-1.6-4.7-1.6-7.5
			c0-4.6,0.9-8,2.7-10.3c1.8-2.2,4.8-3.4,9.2-3.4c4.3,0,7.3,1.3,8.8,3.9c1.5,2.6,2.3,6.4,2.3,11.5v3.5h-7.8v-4
			c0-2.7-0.2-4.7-0.7-5.8c-0.5-1.2-1.4-1.8-2.7-1.8c-1.3,0-2.3,0.4-2.9,1.3c-0.6,0.9-0.9,2.2-0.9,4s0.3,3.2,0.9,4.3
			c0.6,1.1,1.7,2.4,3.2,4.1l4.6,5c2.3,2.5,4,5,5.2,7.6c1.2,2.6,1.8,5.4,1.8,8.4c0,5.2-0.9,9.1-2.6,11.6c-1.8,2.5-4.8,3.7-9.2,3.7
			s-7.5-1.4-9.2-4.2C176.5,97.4,175.6,93.3,175.6,88z"/>
		<path class="st0" d="M236.8,103.7V67.1c0-3.2-1.1-4.7-3.2-4.7c-1.3,0-2.3,0.4-3,1.3c-0.7,0.9-1,2.2-1,3.8v36.1h-8.4V67
			c0-3.1-1-4.7-3.1-4.7c-1.4,0-2.4,0.5-3.1,1.6c-0.7,1-1,2.4-1,4v35.7h-8.4V56h8.4v5.2c0.5-1.8,1.4-3.2,2.6-4.2c1.3-1,2.9-1.5,5-1.5
			c3.5,0,5.9,1.6,7.1,4.8c1.7-3.2,4.4-4.8,8.1-4.8c3,0,5.2,1,6.5,3c1.3,2,2,4.9,2,8.7v36.5H236.8z"/>
		<path class="st0" d="M261.2,104.2c-3.1,0-5.3-1.1-6.7-3.4c-1.3-2.2-2-5.4-2.1-9.6v-3c0-4.1,1.1-7.1,3.3-9.2c1.4-1.4,3.8-2.7,7.2-4
			c0.6-0.2,1.5-0.6,2.6-1c1.1-0.4,1.9-0.7,2.3-0.9v-4.2c0-2.6-0.2-4.3-0.6-5.3c-0.4-0.9-1.2-1.4-2.5-1.4c-1.3,0-2.2,0.5-2.7,1.5
			c-0.4,1-0.7,2.6-0.7,4.9v2.1h-8.3v-1.4c0-4.5,0.8-8,2.5-10.3c1.7-2.4,4.7-3.6,9-3.6c4.3,0,7.3,1.2,9.1,3.6
			c1.8,2.4,2.7,5.9,2.7,10.7v34H268v-4.7c-0.4,1.5-1.2,2.7-2.4,3.7C264.4,103.7,262.9,104.2,261.2,104.2z M267.9,77.8
			c-2.7,1.2-4.5,2.3-5.4,3.4c-0.9,1.1-1.4,2.7-1.4,4.9v5.1c0,2.2,0.2,3.8,0.7,4.8c0.5,1,1.2,1.4,2.3,1.4c1,0,1.9-0.4,2.6-1.1
			c0.7-0.7,1.1-1.5,1.3-2.4V77.8z"/>
		<path class="st0" d="M282.9,67.2c0-7.8,3.7-11.7,11.2-11.7c3.7,0,6.5,1.1,8.2,3.2c1.7,2.1,2.6,5.7,2.6,10.6v2.6h-7.5v-3.1
			c0-2.2-0.2-3.8-0.7-4.8c-0.5-1-1.3-1.6-2.4-1.6s-2,0.3-2.5,1c-0.5,0.7-0.8,1.8-0.8,3.4c0,2.5,1.1,4.9,3.4,7l4.5,4.1
			c4.6,4.3,7,9.1,7,14.3c0,4.1-0.9,7.1-2.8,9.1c-1.8,2-4.7,3-8.6,3c-3.9,0-6.7-1.1-8.6-3.3c-1.8-2.2-2.8-5.8-2.8-10.7v-3.1h7.9v3.8
			c0,4.2,1.1,6.4,3.2,6.4c1.1,0,2-0.4,2.5-1.1c0.5-0.8,0.8-2,0.8-3.8c0-3.2-1.5-6.1-4.4-8.8c-0.1-0.1-0.8-0.7-2-1.8
			c-1.3-1.1-2-1.8-2.2-2C284.8,76.2,282.9,72,282.9,67.2z"/>
		<path class="st0" d="M312,103.7V47.3h8.4v14.2c0.4-1.7,1.3-3.1,2.6-4.3c1.3-1.2,2.9-1.7,4.8-1.7c2.8,0,4.8,0.9,6.3,2.7
			c1.4,1.8,2.1,4.5,2.1,8v37.5h-8.4V67c0-3.1-1.1-4.6-3.4-4.6c-1.3,0-2.3,0.5-3,1.6c-0.7,1.1-1,2.5-1,4.3v35.4H312z"/>
	</g>
	<g>
		<path class="st3" d="M365,100.4c-1.9,2.6-5,3.9-9.1,3.9c-4.1,0-7.2-1.4-9.3-4.1c-2-2.8-3.1-6.7-3.1-11.9V63.9
			c0-8.3,2.2-13.5,6.5-15.6c1.6-0.8,3.6-1.1,5.8-1.1c7.9,0,11.8,5,11.8,14.9v7.7h-8.2v-7.1c0-2.9-0.2-4.9-0.7-6.2
			c-0.5-1.2-1.4-1.9-2.9-1.9c-1.4,0-2.4,0.7-3,2c-0.6,1.3-0.8,3.3-0.8,6v26.1c0,3,0.3,5.2,0.8,6.4c0.5,1.3,1.5,1.9,2.9,1.9
			c1.4,0,2.4-0.7,2.9-2c0.5-1.3,0.8-3.5,0.8-6.5v-8h8.4v7.9C367.8,93.8,366.9,97.8,365,100.4z"/>
		<path class="st3" d="M386,104.3c-4.5,0-7.6-1.3-9.3-4c-1.7-2.7-2.6-6.6-2.6-11.7V70.7c0-10.2,4-15.3,11.9-15.3
			c7.9,0,11.9,5.1,11.9,15.3v17.8c0,7.9-2,12.8-6.1,14.6C390.2,103.9,388.3,104.3,386,104.3z M386,97.5c1.3,0,2.2-0.6,2.7-1.7
			c0.5-1.2,0.7-2.9,0.7-5.2V69.2c0-2.3-0.2-4.1-0.7-5.2c-0.5-1.2-1.4-1.7-2.7-1.7c-1.3,0-2.2,0.6-2.7,1.7c-0.5,1.2-0.7,2.9-0.7,5.3
			v21.3c0,3.5,0.6,5.6,1.7,6.4C384.7,97.3,385.3,97.5,386,97.5z"/>
		<path class="st3" d="M436.9,103.7V67.1c0-3.2-1.1-4.7-3.2-4.7c-1.3,0-2.3,0.4-3,1.3c-0.7,0.9-1,2.2-1,3.8v36.1h-8.4V67
			c0-3.1-1-4.7-3.1-4.7c-1.4,0-2.4,0.5-3.1,1.6c-0.7,1-1,2.4-1,4v35.7h-8.4V56h8.4v5.2c0.5-1.8,1.4-3.2,2.6-4.2c1.3-1,2.9-1.5,5-1.5
			c3.5,0,5.9,1.6,7.1,4.8c1.7-3.2,4.4-4.8,8.1-4.8c3,0,5.2,1,6.5,3c1.3,2,2,4.9,2,8.7v36.5H436.9z"/>
		<path class="st3" d="M461.8,99.2v4.4h-8.4V47.3h8.4v12.2c0.5-1.2,1.3-2.1,2.4-2.9c1.2-0.7,2.4-1.1,3.8-1.1c4.1,0,6.7,1.8,8,5.5
			c0.8,2.3,1.2,5.3,1.2,8.8v20.2c0,0,0,0.1,0,0.1c0,6.9-1.5,11.2-4.6,13.1c-1.1,0.7-2.5,1-4,1c0,0-0.1,0-0.2,0
			C465.3,104.1,463,102.5,461.8,99.2z M462.6,95.5c0.5,1.3,1.5,2,2.9,2s2.4-0.6,2.8-1.9c0.4-1.3,0.6-3.4,0.6-6.4V69.6
			c0-3.8-0.5-6.1-1.5-6.8c-0.4-0.3-1-0.5-1.7-0.5c-1.4,0-2.4,0.5-3,1.6c-0.6,1.1-0.9,3-0.9,5.7v19.6
			C461.8,92.1,462.1,94.2,462.6,95.5z"/>
		<path class="st3" d="M496.3,104.3c-4.5,0-7.6-1.3-9.3-4c-1.7-2.7-2.6-6.6-2.6-11.7V70.7c0-10.2,4-15.3,11.9-15.3
			c7.9,0,11.9,5.1,11.9,15.3v17.8c0,7.9-2,12.8-6.1,14.6C500.4,103.9,498.5,104.3,496.3,104.3z M496.3,97.5c1.3,0,2.2-0.6,2.7-1.7
			c0.5-1.2,0.7-2.9,0.7-5.2V69.2c0-2.3-0.2-4.1-0.7-5.2c-0.5-1.2-1.4-1.7-2.7-1.7c-1.3,0-2.2,0.6-2.7,1.7c-0.5,1.2-0.7,2.9-0.7,5.3
			v21.3c0,3.5,0.6,5.6,1.7,6.4C495,97.3,495.6,97.5,496.3,97.5z"/>
		<path class="st3" d="M514.2,67.2c0-7.8,3.7-11.7,11.2-11.7c3.7,0,6.5,1.1,8.2,3.2c1.7,2.1,2.6,5.7,2.6,10.6v2.6h-7.5v-3.1
			c0-2.2-0.2-3.8-0.7-4.8c-0.5-1-1.3-1.6-2.4-1.6c-1.1,0-2,0.3-2.5,1c-0.5,0.7-0.8,1.8-0.8,3.4c0,2.5,1.1,4.9,3.4,7l4.5,4.1
			c4.6,4.3,7,9.1,7,14.3c0,4.1-0.9,7.1-2.8,9.1c-1.8,2-4.7,3-8.6,3c-3.9,0-6.7-1.1-8.6-3.3c-1.8-2.2-2.8-5.8-2.8-10.7v-3.1h7.9v3.8
			c0,4.2,1.1,6.4,3.2,6.4c1.1,0,2-0.4,2.5-1.1c0.5-0.8,0.8-2,0.8-3.8c0-3.2-1.5-6.1-4.4-8.8c-0.1-0.1-0.8-0.7-2-1.8
			c-1.3-1.1-2-1.8-2.2-2C516.2,76.2,514.2,72,514.2,67.2z"/>
	</g>
</g>
<line class="st4" x1="175.6" y1="41.5" x2="537.1" y2="41.5"/>
<line class="st4" x1="175.6" y1="111.5" x2="537.1" y2="111.5"/>
</svg>
